<?xml version="1.0" encoding="UTF-8" standalone="no"?>
<svg
   xmlns:dc="http://purl.org/dc/elements/1.1/"
   xmlns:cc="http://creativecommons.org/ns#"
   xmlns:rdf="http://www.w3.org/1999/02/22-rdf-syntax-ns#"
   xmlns:svg="http://www.w3.org/2000/svg"
   xmlns="http://www.w3.org/2000/svg"
   xmlns:sodipodi="http://sodipodi.sourceforge.net/DTD/sodipodi-0.dtd"
   xmlns:inkscape="http://www.inkscape.org/namespaces/inkscape"
   version="1.0"
   width="7.4999866pt"
   height="13.65995pt"
   viewBox="0 0 7.4999867 13.65995"
   preserveAspectRatio="xMidYMid meet"
   id="svg936"
   sodipodi:docname="back.ee3f4d84.svg"
   inkscape:version="0.92.5 (2060ec1f9f, 2020-04-08)">
  <metadata
     id="metadata942">
    <rdf:RDF>
      <cc:Work
         rdf:about="">
        <dc:format>image/svg+xml</dc:format>
        <dc:type
           rdf:resource="http://purl.org/dc/dcmitype/StillImage" />
      </cc:Work>
    </rdf:RDF>
  </metadata>
  <defs
     id="defs940" />
  <sodipodi:namedview
     pagecolor="#ffffff"
     bordercolor="#666666"
     borderopacity="1"
     objecttolerance="10"
     gridtolerance="10"
     guidetolerance="10"
     inkscape:pageopacity="0"
     inkscape:pageshadow="2"
     inkscape:window-width="1366"
     inkscape:window-height="704"
     id="namedview938"
     showgrid="false"
     inkscape:zoom="0.5"
     inkscape:cx="200.44409"
     inkscape:cy="259.8241"
     inkscape:window-x="0"
     inkscape:window-y="27"
     inkscape:window-maximized="1"
     inkscape:current-layer="svg936" />
  <g
     transform="matrix(0.00267383,0,0,-0.00267383,-3.0948688,13.677427)"
     id="g934"
     style="fill:#666666;stroke:none">
    <path
       d="m 3650,5107 c -26,-7 -62,-23 -80,-34 C 3551,5061 3010,4525 2368,3883 1094,2608 1158,2678 1158,2558 1158,2441 1102,2502 2382,1223 3660,-54 3594,7 3710,7 c 143,0 252,109 252,251 0,120 56,58 -1115,1230 L 1775,2560 2847,3633 c 1171,1171 1115,1109 1115,1229 0,164 -157,287 -312,245 z"
       id="path932"
       inkscape:connector-curvature="0"
       style="fill:#666666" />
  </g>
</svg>
